<svg width="24" height="24" viewBox="0 0 24 24" fill="none" xmlns="http://www.w3.org/2000/svg">
<path d="M7.055 3.4998C5.685 4.8798 5.685 7.0998 7.055 8.4698L15.545 16.9498C16.125 17.5398 16.125 18.4998 15.545 19.0698C14.955 19.6598 14.005 19.6598 13.415 19.0698L9.175 14.8298L10.235 13.7698L6.705 10.2298L6.345 10.5898L4.935 9.1698C4.545 8.7798 3.915 8.7798 3.505 9.1698L2.105 10.5898C1.715 10.9998 1.715 11.6098 2.105 11.9998L3.505 13.4098L3.165 13.7698L6.705 17.2998L7.765 16.2398L12.005 20.4998C13.375 21.8498 15.585 21.8498 16.955 20.4998C18.325 19.1198 18.325 16.8998 16.955 15.5398L8.465 7.0498C7.885 6.4598 7.885 5.4998 8.465 4.9298C9.055 4.3398 10.005 4.3398 10.595 4.9298L14.835 9.1698L13.775 10.2298L17.305 13.7698L17.665 13.4098L19.075 14.8298C19.465 15.2198 20.105 15.2198 20.505 14.8298L21.905 13.4098C22.295 12.9998 22.295 12.3898 21.905 11.9998L20.505 10.5898L20.845 10.2298L17.305 6.6998L16.245 7.7598L12.005 3.4998C10.635 2.1498 8.425 2.1498 7.055 3.4998ZM2.815 11.2898L4.225 9.8798L5.645 11.2898L4.225 12.7098M18.365 12.7098L19.785 11.2898L21.195 12.7098L19.785 14.1198L18.365 12.7098Z" fill="black"/>
</svg>
