<svg width="170" height="25" viewBox="0 0 170 25" fill="none" xmlns="http://www.w3.org/2000/svg">
<path d="M0.000625081 21.3896V0.389647H3.00063V21.3896H0.000625081ZM5.03031 21.3896V6.50965H7.70031L7.91031 9.02965H7.97031C8.45031 8.14965 9.12031 7.44965 9.98031 6.92965C10.8603 6.40965 11.8903 6.14965 13.0703 6.14965C14.2503 6.14965 15.2703 6.39965 16.1303 6.89965C16.9903 7.37965 17.6503 8.10965 18.1103 9.08965C18.5903 10.0696 18.8303 11.3096 18.8303 12.8096V21.3896H15.8303V13.1096C15.8303 11.6696 15.5203 10.5796 14.9003 9.83965C14.3003 9.07965 13.4103 8.69965 12.2303 8.69965C11.4103 8.69965 10.6903 8.89965 10.0703 9.29965C9.45031 9.67965 8.95031 10.2396 8.57031 10.9796C8.21031 11.7196 8.03031 12.6196 8.03031 13.6796V21.3896H5.03031ZM26.7025 21.3896C25.7425 21.3896 24.9125 21.2396 24.2125 20.9396C23.5125 20.6396 22.9725 20.1396 22.5925 19.4396C22.2125 18.7396 22.0225 17.7896 22.0225 16.5896V8.93965H19.4725V6.50965H22.0225L22.3825 2.78965H25.0225V6.50965H29.2825V8.93965H25.0225V16.6196C25.0225 17.4996 25.2025 18.0996 25.5625 18.4196C25.9225 18.7396 26.5425 18.8996 27.4225 18.8996H29.1025V21.3896H26.7025ZM36.8216 21.7496C35.3816 21.7496 34.1016 21.4296 32.9816 20.7896C31.8616 20.1296 30.9816 19.2196 30.3416 18.0596C29.7016 16.8996 29.3816 15.5396 29.3816 13.9796C29.3816 12.4196 29.6916 11.0596 30.3116 9.89965C30.9516 8.71965 31.8316 7.79965 32.9516 7.13965C34.0716 6.47965 35.3816 6.14965 36.8816 6.14965C38.3416 6.14965 39.6016 6.47965 40.6616 7.13965C41.7416 7.77965 42.5716 8.62965 43.1516 9.68965C43.7316 10.7496 44.0216 11.9296 44.0216 13.2296C44.0216 13.4296 44.0216 13.6496 44.0216 13.8896C44.0216 14.1296 44.0116 14.3796 43.9916 14.6396H31.5716V12.5396H41.0216C40.9616 11.2996 40.5416 10.3296 39.7616 9.62965C38.9816 8.92965 38.0116 8.57965 36.8516 8.57965C36.0316 8.57965 35.2716 8.75965 34.5716 9.11965C33.8916 9.47965 33.3416 10.0096 32.9216 10.7096C32.5216 11.4096 32.3216 12.2996 32.3216 13.3796V14.2196C32.3216 15.3196 32.5216 16.2496 32.9216 17.0096C33.3416 17.7496 33.8916 18.3096 34.5716 18.6896C35.2716 19.0696 36.0216 19.2596 36.8216 19.2596C37.7616 19.2596 38.5516 19.0496 39.1916 18.6296C39.8316 18.1896 40.3016 17.5996 40.6016 16.8596H43.6016C43.3416 17.7996 42.9016 18.6396 42.2816 19.3796C41.6616 20.0996 40.8916 20.6796 39.9716 21.1196C39.0716 21.5396 38.0216 21.7496 36.8216 21.7496ZM45.2373 21.3896V6.50965H47.9073L48.1773 9.50965H48.2073C48.6073 8.68965 49.0573 8.03965 49.5573 7.55965C50.0773 7.05965 50.6773 6.69965 51.3573 6.47965C52.0573 6.25965 52.8473 6.14965 53.7273 6.14965V9.29965H52.9173C52.2373 9.29965 51.6073 9.38965 51.0273 9.56965C50.4473 9.72965 49.9473 9.99965 49.5273 10.3796C49.1273 10.7396 48.8073 11.2296 48.5673 11.8496C48.3473 12.4496 48.2373 13.1996 48.2373 14.0996V21.3896H45.2373ZM54.61 21.3896V0.389647H57.61V19.0196H67.21V21.3896H54.61ZM73.3802 21.7496C72.1602 21.7496 71.1402 21.5496 70.3202 21.1496C69.5202 20.7296 68.9202 20.1696 68.5202 19.4696C68.1402 18.7696 67.9502 18.0096 67.9502 17.1896C67.9502 16.2096 68.2002 15.3696 68.7002 14.6696C69.2202 13.9696 69.9602 13.4296 70.9202 13.0496C71.8802 12.6696 73.0402 12.4796 74.4002 12.4796H78.3602C78.3602 11.5996 78.2202 10.8796 77.9402 10.3196C77.6602 9.73965 77.2602 9.30965 76.7402 9.02965C76.2402 8.72965 75.6102 8.57965 74.8502 8.57965C73.9502 8.57965 73.1602 8.80965 72.4802 9.26965C71.8202 9.70965 71.4102 10.3796 71.2502 11.2796H68.2502C68.3702 10.1796 68.7302 9.25965 69.3302 8.51965C69.9502 7.75965 70.7402 7.17965 71.7002 6.77965C72.6802 6.35965 73.7402 6.14965 74.8802 6.14965C76.2802 6.14965 77.4602 6.39965 78.4202 6.89965C79.3802 7.39965 80.1102 8.10965 80.6102 9.02965C81.1102 9.92965 81.3602 10.9996 81.3602 12.2396V21.3896H78.7802L78.5102 18.8696H78.4802C78.2402 19.2896 77.9502 19.6796 77.6102 20.0396C77.2902 20.3996 76.9202 20.7096 76.5002 20.9696C76.0802 21.2096 75.6102 21.3996 75.0902 21.5396C74.5702 21.6796 74.0002 21.7496 73.3802 21.7496ZM74.0102 19.3196C74.6902 19.3196 75.2902 19.1896 75.8102 18.9296C76.3302 18.6696 76.7702 18.3196 77.1302 17.8796C77.5102 17.4196 77.7902 16.9096 77.9702 16.3496C78.1702 15.7896 78.2802 15.2096 78.3002 14.6096H74.7002C73.8402 14.6096 73.1402 14.7096 72.6002 14.9096C72.0602 15.1096 71.6702 15.3896 71.4302 15.7496C71.2102 16.1096 71.1002 16.5296 71.1002 17.0096C71.1002 17.4696 71.2102 17.8796 71.4302 18.2396C71.6702 18.5796 72.0002 18.8496 72.4202 19.0496C72.8602 19.2296 73.3902 19.3196 74.0102 19.3196ZM91.5899 21.7496C90.7899 21.7496 90.0399 21.6396 89.3399 21.4196C88.6599 21.1996 88.0499 20.8796 87.5099 20.4596C86.9699 20.0196 86.5099 19.4996 86.1299 18.8996H86.0999L85.8299 21.3896H83.1899V-0.000353336H86.1899V8.81965C86.6699 8.13965 87.3399 7.52965 88.1999 6.98965C89.0799 6.42965 90.1799 6.14965 91.4999 6.14965C92.9799 6.14965 94.2599 6.48965 95.3399 7.16965C96.4399 7.84965 97.2899 8.77965 97.8899 9.95965C98.5099 11.1396 98.8199 12.4796 98.8199 13.9796C98.8199 15.4596 98.5099 16.7896 97.8899 17.9696C97.2899 19.1296 96.4499 20.0496 95.3699 20.7296C94.2899 21.4096 93.0299 21.7496 91.5899 21.7496ZM90.9899 19.1696C91.9499 19.1696 92.7799 18.9496 93.4799 18.5096C94.1999 18.0696 94.7599 17.4596 95.1599 16.6796C95.5599 15.8996 95.7599 14.9896 95.7599 13.9496C95.7599 12.9096 95.5599 11.9996 95.1599 11.2196C94.7599 10.4396 94.1999 9.82965 93.4799 9.38965C92.7799 8.94965 91.9499 8.72965 90.9899 8.72965C90.0499 8.72965 89.2199 8.94965 88.4999 9.38965C87.7799 9.82965 87.2099 10.4396 86.7899 11.2196C86.3899 11.9996 86.1899 12.9096 86.1899 13.9496C86.1899 14.9896 86.3899 15.8996 86.7899 16.6796C87.2099 17.4596 87.7799 18.0696 88.4999 18.5096C89.2199 18.9496 90.0499 19.1696 90.9899 19.1696ZM121.095 24.3896L113.865 13.0196H117.345L124.635 24.3896H121.095ZM115.725 21.7496C113.665 21.7496 111.855 21.2996 110.295 20.3996C108.735 19.4796 107.515 18.2096 106.635 16.5896C105.755 14.9496 105.315 13.0496 105.315 10.8896C105.315 8.74965 105.755 6.86965 106.635 5.24965C107.515 3.60965 108.735 2.32965 110.295 1.40965C111.855 0.489648 113.665 0.0296481 115.725 0.0296481C117.805 0.0296481 119.625 0.489648 121.185 1.40965C122.745 2.32965 123.955 3.60965 124.815 5.24965C125.695 6.86965 126.135 8.74965 126.135 10.8896C126.135 13.0496 125.695 14.9496 124.815 16.5896C123.955 18.2096 122.745 19.4796 121.185 20.3996C119.625 21.2996 117.805 21.7496 115.725 21.7496ZM115.725 19.0796C117.185 19.0796 118.465 18.7496 119.565 18.0896C120.685 17.4296 121.545 16.4896 122.145 15.2696C122.765 14.0496 123.075 12.5896 123.075 10.8896C123.075 9.18965 122.765 7.72965 122.145 6.50965C121.545 5.28965 120.685 4.35965 119.565 3.71965C118.465 3.05965 117.185 2.72965 115.725 2.72965C114.265 2.72965 112.985 3.05965 111.885 3.71965C110.785 4.35965 109.925 5.28965 109.305 6.50965C108.685 7.72965 108.375 9.18965 108.375 10.8896C108.375 12.5896 108.685 14.0496 109.305 15.2696C109.925 16.4896 110.785 17.4296 111.885 18.0896C112.985 18.7496 114.265 19.0796 115.725 19.0796ZM137.244 21.7496C135.164 21.7496 133.364 21.2996 131.844 20.3996C130.344 19.4796 129.184 18.2096 128.364 16.5896C127.564 14.9496 127.164 13.0496 127.164 10.8896C127.164 8.74965 127.574 6.85965 128.394 5.21965C129.214 3.57965 130.374 2.30965 131.874 1.40965C133.374 0.489648 135.164 0.0296481 137.244 0.0296481C139.704 0.0296481 141.704 0.619648 143.244 1.79965C144.784 2.97965 145.764 4.63965 146.184 6.77965H142.854C142.554 5.53965 141.934 4.54965 140.994 3.80965C140.074 3.06965 138.824 2.69965 137.244 2.69965C135.804 2.69965 134.554 3.02965 133.494 3.68965C132.454 4.34965 131.644 5.28965 131.064 6.50965C130.504 7.72965 130.224 9.18965 130.224 10.8896C130.224 12.5896 130.504 14.0496 131.064 15.2696C131.644 16.4896 132.454 17.4296 133.494 18.0896C134.554 18.7496 135.804 19.0796 137.244 19.0796C138.824 19.0796 140.084 18.7296 141.024 18.0296C141.964 17.3096 142.584 16.3396 142.884 15.1196H146.184C145.764 17.1996 144.784 18.8296 143.244 20.0096C141.704 21.1696 139.704 21.7496 137.244 21.7496ZM147.798 21.3896V0.389647H151.578L158.538 14.9696H158.568L165.498 0.389647H169.278V21.3896H166.278V5.39965H166.248L159.948 18.3896H157.128L150.828 5.39965H150.798V21.3896H147.798Z" fill="black"/>
</svg>
